<?xml version="1.0"?>
<svg xmlns="http://www.w3.org/2000/svg" xmlns:xlink="http://www.w3.org/1999/xlink" viewBox="80 80 384 384"  width="24" height="24">
    <linearGradient id="a" gradientUnits="userSpaceOnUse" x1="315.02" x2="315.02" y1="12" y2="490.602">
        <stop offset="0" stop-color="#00EFD1"/>
        <stop offset="1" stop-color="#00acea"/>
    </linearGradient>
    <linearGradient id="b" x1="142.187" x2="142.187" xlink:href="#a" y1="12" y2="490.602"/>
    <path  d="m406.342 246h-182.642a10 10 0 1 0 0 20h182.642a10 10 0 0 0 0-20z" fill="url(#a)"/>
    <path d="m142.188 209.472a46.528 46.528 0 1 0 46.528 46.528 46.581 46.581 0 0 0 -46.528-46.528zm0 73.056a26.528 26.528 0 1 1 26.528-26.528 26.559 26.559 0 0 1 -26.528 26.528z" fill="url(#b)"/>
    <path d="m406.342 121h-182.642a10 10 0 1 0 0 20h182.642a10 10 0 0 0 0-20z" fill="url(#a)"/>
    <path d="m142.188 84.23a46.529 46.529 0 1 0 46.528 46.529 46.582 46.582 0 0 0 -46.528-46.529zm0 73.057a26.529 26.529 0 1 1 26.528-26.528 26.559 26.559 0 0 1 -26.528 26.528z" fill="url(#b)"/>
    <path d="m406.342 371h-182.642a10 10 0 1 0 0 20h182.642a10 10 0 0 0 0-20z" fill="url(#a)"/>
    <path d="m142.188 334.713a46.529 46.529 0 1 0 46.528 46.528 46.581 46.581 0 0 0 -46.528-46.528zm0 73.057a26.529 26.529 0 1 1 26.528-26.529 26.56 26.56 0 0 1 -26.528 26.529z" fill="url(#b)"/>
</svg>
